<?xml version="1.0" standalone="no"?>
<!DOCTYPE svg PUBLIC "-//W3C//DTD SVG 20010904//EN"
 "http://www.w3.org/TR/2001/REC-SVG-20010904/DTD/svg10.dtd">
<svg version="1.0" xmlns="http://www.w3.org/2000/svg"
 width="367.000000pt" height="367.000000pt" viewBox="0 0 367.000000 367.000000"
 preserveAspectRatio="xMidYMid meet">
<metadata>
Created by potrace 1.11, written by Peter Selinger 2001-2013
</metadata>
<g transform="translate(0.000000,367.000000) scale(0.100000,-0.100000)"
fill="#000000" stroke="none">
<path d="M2136 3223 c-44 -12 -151 -76 -203 -120 -94 -80 -118 -160 -114 -369
l1 -62 40 0 c54 -1 70 17 63 70 -3 24 -9 45 -13 48 -11 7 12 114 28 133 7 8
12 21 11 29 -3 26 1 38 16 38 8 0 29 16 48 35 30 31 40 35 83 35 27 0 65 5 84
11 19 6 62 12 95 14 58 3 111 12 125 20 16 10 78 -20 95 -46 27 -39 30 -29 6
18 -23 47 -74 94 -134 125 -32 16 -63 22 -127 24 -47 2 -94 0 -104 -3z"/>
<path d="M2458 2873 c-19 -5 -26 -53 -8 -53 6 0 5 -11 -4 -28 -16 -31 -8 -55
24 -72 23 -12 50 -3 50 16 0 12 4 12 20 4 15 -8 20 -8 20 3 0 7 -10 19 -23 26
-13 7 -28 21 -35 32 -11 17 -9 19 17 19 32 0 54 20 46 41 -5 14 -72 21 -107
12z"/>
<path d="M2165 2853 c-11 -3 -28 -12 -38 -21 -18 -16 -18 -17 0 -23 10 -4 41
-8 68 -8 36 -1 46 -4 35 -11 -8 -5 -11 -10 -6 -10 5 0 -3 -9 -18 -21 l-26 -20
21 -28 c16 -21 27 -27 46 -23 32 6 64 57 54 85 -6 15 -3 26 12 37 18 15 18 17
2 33 -16 17 -99 22 -150 10z"/>
<path d="M2130 2720 c-11 -7 -7 -10 18 -10 20 0 31 4 27 10 -8 13 -26 13 -45
0z"/>
<path d="M1871 2582 c-14 -26 -14 -82 -1 -82 6 0 10 9 10 21 0 11 5 30 11 41
7 13 8 23 1 30 -7 7 -14 3 -21 -10z"/>
<path d="M2288 2576 c-3 -14 -2 -30 2 -36 11 -18 33 16 25 40 -9 27 -22 25
-27 -4z"/>
<path d="M2365 2560 c-15 -17 -16 -20 -3 -20 19 0 42 26 30 34 -5 3 -17 -3
-27 -14z"/>
<path d="M2450 2560 c0 -5 7 -10 15 -10 8 0 15 5 15 10 0 6 -7 10 -15 10 -8 0
-15 -4 -15 -10z"/>
<path d="M2410 2496 c0 -19 5 -26 20 -26 16 0 18 4 11 22 -12 32 -31 34 -31 4z"/>
<path d="M2347 2429 c-15 -12 -34 -18 -42 -15 -15 5 -45 -18 -45 -35 0 -6 9
-7 23 -3 12 4 49 8 82 8 33 0 47 2 32 4 -21 2 -27 8 -23 19 3 8 6 17 6 19 0 2
16 4 35 4 29 0 35 -4 35 -21 0 -18 4 -20 23 -14 12 4 32 6 44 6 12 0 25 4 28
9 3 6 -2 10 -12 10 -10 0 -26 7 -36 14 -28 22 -117 19 -150 -5z"/>
<path d="M2391 2323 c-12 -13 -12 -17 2 -25 10 -5 17 -16 17 -24 0 -8 4 -13 9
-9 5 3 12 1 15 -4 3 -5 -2 -12 -12 -16 -36 -17 -64 -15 -91 5 -44 31 -54 25
-75 -41 -18 -57 -18 -62 -2 -98 12 -26 29 -43 55 -54 67 -30 201 11 246 76 15
21 21 110 9 141 -9 23 -22 20 -26 -6 -2 -18 -12 -24 -40 -29 -33 -5 -37 -3
-43 20 -4 17 -1 29 9 37 9 6 16 19 16 28 0 22 -69 22 -89 -1z"/>
<path d="M1881 2088 c-19 -30 -41 -158 -42 -235 0 -53 -3 -64 -20 -74 -22 -11
-21 -34 2 -34 8 0 24 -10 37 -23 40 -40 58 -30 78 44 9 36 23 72 30 79 11 11
9 25 -12 76 -34 88 -40 132 -20 148 25 21 19 41 -12 41 -17 0 -32 -8 -41 -22z"/>
<path d="M2310 2000 c-12 -8 -9 -10 13 -10 16 0 26 4 22 10 -8 12 -16 12 -35
0z"/>
<path d="M2562 1965 c12 -24 24 -42 26 -40 7 7 -29 85 -39 85 -5 0 1 -20 13
-45z"/>
<path d="M2620 2002 c0 -8 37 -27 143 -71 55 -23 77 -62 77 -137 0 -35 8 -60
35 -104 19 -32 35 -63 35 -69 0 -12 20 -14 44 -5 23 9 20 23 -15 55 -36 34
-49 100 -29 148 10 26 9 35 -16 76 -15 26 -48 62 -73 81 -43 31 -51 34 -123
34 -43 0 -78 -4 -78 -8z"/>
<path d="M3416 1968 c-2 -7 -7 -38 -10 -68 -3 -30 -17 -91 -31 -135 -30 -97
-30 -105 -6 -105 11 0 23 -4 26 -10 4 -6 -14 -10 -48 -10 -29 0 -56 -3 -60 -6
-3 -4 1 -21 10 -38 9 -17 18 -25 20 -18 7 20 23 14 24 -10 l0 -23 9 23 c5 12
16 22 24 22 19 0 27 -38 13 -61 -8 -14 -9 -22 -1 -27 6 -4 14 -15 17 -26 4
-11 13 -16 22 -12 8 3 14 0 12 -6 -1 -6 4 -13 12 -15 10 -4 11 1 6 18 -4 13
-4 21 0 17 4 -4 10 -31 12 -60 2 -29 6 -54 9 -57 4 -4 8 51 5 79 -2 12 0 13 7
1 6 -7 14 -11 19 -8 5 3 8 -8 6 -26 -2 -18 0 -27 3 -20 4 8 13 9 30 3 13 -5
29 -8 36 -6 7 1 10 1 6 -1 -12 -7 3 -33 19 -33 9 0 13 6 9 15 -3 9 0 15 10 15
8 0 13 -4 10 -9 -3 -5 3 -11 14 -14 37 -10 25 53 -26 140 -93 155 -144 303
-156 448 -2 23 -9 31 -26 33 -12 2 -24 -3 -26 -10z m29 -157 c3 -5 1 -12 -5
-16 -5 -3 -10 1 -10 9 0 18 6 21 15 7z m5 -73 c0 -5 -4 -8 -10 -8 -5 0 -10 10
-10 23 0 18 2 19 10 7 5 -8 10 -18 10 -22z m0 -67 c0 -17 -4 -33 -10 -36 -6
-4 -10 8 -10 29 0 20 5 36 10 36 6 0 10 -13 10 -29z m10 -121 c0 -27 -4 -50
-9 -50 -5 0 -18 16 -30 35 -17 29 -19 39 -8 50 6 8 20 14 30 15 14 0 17 -9 17
-50z"/>
<path d="M1066 1779 c-67 -58 -78 -103 -51 -193 30 -100 65 -120 125 -70 33
28 39 69 10 70 -41 1 -69 18 -79 46 -18 52 -13 98 15 135 35 46 25 52 -20 12z"/>
<path d="M2930 1741 c0 -11 5 -23 10 -26 6 -3 10 3 10 14 0 11 -4 23 -10 26
-5 3 -10 -3 -10 -14z"/>
<path d="M1794 1659 c-8 -13 13 -29 39 -29 20 0 22 11 5 28 -15 15 -35 15 -44
1z"/>
<path d="M1876 1634 c-7 -18 0 -34 15 -34 6 0 8 4 5 9 -4 5 -1 11 6 13 6 2 8
10 4 16 -10 17 -23 15 -30 -4z"/>
<path d="M3150 1605 c-7 -9 -8 -15 -2 -15 5 0 12 7 16 15 3 8 4 15 2 15 -2 0
-9 -7 -16 -15z"/>
<path d="M3130 1565 c-16 -20 -22 -153 -7 -162 6 -4 8 0 4 10 -3 9 -2 19 4 23
6 3 8 13 5 21 -4 8 1 35 9 59 8 25 15 49 15 54 0 15 -16 12 -30 -5z"/>
<path d="M1994 1535 c-6 -15 17 -45 35 -45 20 0 23 22 5 41 -21 23 -33 24 -40
4z"/>
<path d="M2078 1458 c3 -18 11 -42 19 -53 14 -18 14 -17 8 20 -8 51 -34 82
-27 33z"/>
<path d="M2935 1477 c-21 -13 -38 -35 -41 -53 -5 -29 -16 -54 -25 -54 -12 0
-11 47 2 72 19 35 3 29 -30 -12 -28 -35 -31 -45 -23 -68 8 -23 14 -27 49 -27
23 -1 48 -7 56 -14 13 -10 127 -22 127 -13 0 1 -5 11 -11 21 -9 14 -8 29 5 66
20 61 20 64 -1 61 -10 -2 -29 5 -42 15 -27 22 -38 23 -66 6z m79 -33 c20 -19
20 -34 1 -70 -10 -19 -11 -30 -4 -35 7 -4 5 -9 -5 -12 -9 -4 -16 -2 -16 3 0 5
-10 10 -22 12 -19 2 -24 10 -26 44 -5 62 36 95 72 58z"/>
<path d="M3140 1476 c0 -2 7 -7 16 -10 8 -3 12 -2 9 4 -6 10 -25 14 -25 6z"/>
<path d="M3403 1423 c-3 -10 -13 -26 -21 -35 -12 -14 -12 -20 -2 -33 21 -25
28 -17 32 35 3 53 1 61 -9 33z"/>
<path d="M2130 1418 c0 -27 11 -48 26 -48 19 0 17 14 -6 41 -15 19 -19 21 -20
7z"/>
<path d="M1926 1392 c-19 -36 -4 -67 24 -52 25 13 35 47 20 65 -18 22 -28 19
-44 -13z"/>
<path d="M3090 1385 c0 -8 5 -15 10 -15 6 0 10 7 10 15 0 8 -4 15 -10 15 -5 0
-10 -7 -10 -15z"/>
<path d="M1760 1367 c0 -21 39 -52 50 -41 7 7 3 18 -10 32 -23 25 -40 28 -40
9z"/>
<path d="M2193 1292 c12 -18 72 -33 98 -24 21 8 18 10 -25 16 -27 4 -55 10
-64 14 -10 3 -13 1 -9 -6z"/>
<path d="M2311 1261 c-9 -6 -4 -10 18 -13 17 -2 36 -1 43 4 10 6 9 8 -4 8 -9
0 -22 2 -30 5 -7 3 -19 1 -27 -4z"/>
<path d="M1890 1236 c0 -9 5 -16 10 -16 6 0 10 4 10 9 0 6 -4 13 -10 16 -5 3
-10 -1 -10 -9z"/>
<path d="M2560 1226 c-14 -7 -24 -18 -22 -25 1 -6 -3 -31 -9 -54 -6 -27 -7
-56 -2 -77 l9 -34 17 36 c9 20 17 51 17 70 0 18 7 44 16 57 21 29 7 44 -26 27z"/>
<path d="M2911 1223 c0 -13 -5 -22 -9 -20 -4 1 -28 -18 -52 -43 -25 -25 -66
-55 -92 -67 -54 -25 -62 -49 -21 -59 15 -4 35 -17 45 -29 29 -37 142 -59 178
-34 13 8 12 12 -7 25 -17 12 -20 22 -16 48 3 22 -2 46 -16 74 -17 33 -19 47
-11 63 6 11 9 30 7 42 l-4 22 -2 -22z m-31 -130 c0 -51 -11 -73 -35 -73 -12 0
-28 7 -35 15 -11 13 -9 20 11 43 45 51 59 54 59 15z"/>
<path d="M2120 1221 c0 -6 7 -14 16 -18 12 -4 13 -8 3 -14 -8 -5 2 -10 27 -15
21 -4 66 -12 99 -19 53 -11 61 -10 66 4 6 16 -40 31 -146 48 -22 3 -46 10 -52
16 -9 6 -13 6 -13 -2z m60 -31 c0 -5 -4 -10 -10 -10 -5 0 -10 5 -10 10 0 6 5
10 10 10 6 0 10 -4 10 -10z m137 -26 c-3 -3 -12 -4 -19 -1 -8 3 -5 6 6 6 11 1
17 -2 13 -5z"/>
<path d="M2350 1154 c0 -8 5 -12 10 -9 6 3 10 10 10 16 0 5 -4 9 -10 9 -5 0
-10 -7 -10 -16z"/>
<path d="M2450 1120 c0 -5 5 -10 10 -10 6 0 10 5 10 10 0 6 -4 10 -10 10 -5 0
-10 -4 -10 -10z"/>
<path d="M2968 953 c7 -3 16 -2 19 1 4 3 -2 6 -13 5 -11 0 -14 -3 -6 -6z"/>
<path d="M2656 922 c-3 -6 3 -12 15 -15 12 -3 19 -1 16 6 -5 15 -24 20 -31 9z"/>
<path d="M2721 892 c-13 -25 -14 -32 -2 -32 9 0 23 41 16 48 -2 2 -8 -5 -14
-16z"/>
<path d="M2640 889 c0 -6 6 -17 14 -24 12 -12 15 -12 19 5 3 10 2 21 -1 24 -9
10 -32 6 -32 -5z"/>
<path d="M2765 866 c-3 -9 -7 -23 -10 -31 -2 -8 0 -17 4 -20 5 -2 11 10 14 28
5 35 1 50 -8 23z"/>
<path d="M2700 841 c0 -5 5 -13 10 -16 6 -3 10 -2 10 4 0 5 -4 13 -10 16 -5 3
-10 2 -10 -4z"/>
<path d="M2880 846 c0 -2 7 -6 15 -10 8 -3 15 -1 15 4 0 6 -7 10 -15 10 -8 0
-15 -2 -15 -4z"/>
<path d="M2866 814 c-8 -22 -8 -26 3 -20 5 4 11 1 13 -6 3 -8 7 -6 11 4 3 9 0
21 -7 28 -10 8 -15 7 -20 -6z"/>
<path d="M2810 811 c0 -6 4 -13 10 -16 6 -3 7 1 4 9 -7 18 -14 21 -14 7z"/>
<path d="M3072 438 c-7 -7 -12 -21 -12 -32 0 -20 1 -20 22 2 15 15 19 25 12
32 -7 7 -14 6 -22 -2z"/>
<path d="M2564 351 c-3 -3 5 -13 18 -23 21 -16 21 -18 4 -18 -11 0 -17 -2 -14
-5 11 -11 53 -14 68 -5 12 7 12 12 0 34 -10 20 -20 26 -42 24 -16 -1 -31 -5
-34 -7z"/>
<path d="M3027 353 c-3 -5 -1 -17 4 -28 4 -11 8 -15 8 -8 1 6 4 18 7 27 6 16
-11 23 -19 9z"/>
<path d="M2899 99 c-30 -22 -69 -52 -88 -68 l-34 -28 56 1 c53 0 56 2 68 33 7
18 16 33 21 33 4 0 8 5 8 12 0 6 7 20 17 30 30 34 7 28 -48 -13z"/>
<path d="M2965 10 c-3 -5 3 -10 14 -10 11 0 23 5 26 10 3 6 -3 10 -14 10 -11
0 -23 -4 -26 -10z"/>
</g>
</svg>
